<svg height="477.60001pt" viewBox="0 0 477.60001 477.60001" width="477.60001pt" xmlns="http://www.w3.org/2000/svg"><path d="m477.601562 238.800781c0 131.886719-106.914062 238.800781-238.800781 238.800781s-238.800781-106.914062-238.800781-238.800781 106.914062-238.800781 238.800781-238.800781 238.800781 106.914062 238.800781 238.800781zm0 0" fill="#382b73"/><path d="m445.398438 238.800781c0 114.101563-92.496094 206.597657-206.597657 206.597657-114.101562 0-206.597656-92.496094-206.597656-206.597657 0-114.101562 92.496094-206.597656 206.597656-206.597656 114.101563 0 206.597657 92.496094 206.597657 206.597656zm0 0" fill="#473080"/><path d="m384.929688 214.210938c.003906-.117188-.011719-.234376-.015626-.351563 0-.125-.007812-.242187-.011718-.367187-.007813-.117188-.003906-.234376-.015625-.355469-.015625-.152344-.054688-.308594-.078125-.460938-.023438-.132812-.042969-.269531-.070313-.402343-.015625-.070313-.019531-.144532-.039062-.21875-.050781-.203126-.128907-.40625-.191407-.609376-.042968-.121093-.070312-.238281-.117187-.359374-.148437-.390626-.320313-.78125-.535156-1.160157l-.691407-1.230469-11.472656-20.464843-18.984375-33.855469c-.277343-.496094-.585937-.964844-.917969-1.410156-.335937-.441406-.699218-.863282-1.085937-1.253906-2.320313-2.351563-5.511719-3.730469-8.90625-3.730469h-15.84375v-29.59375.003906-5c0-.679687-.1875-1.308594-.484375-1.867187-.671875-1.261719-1.988281-2.132813-3.515625-2.132813h-30.59375c-2.210937 0-4 1.789063-4 4v34.59375h-151.554687c-1.695313 0-3.34375.34375-4.859376.980469-2.015624.851562-3.796874 2.226562-5.132812 4.003906-.335938.441406-.640625.914062-.917969 1.40625l-30.460937 54.320312-.691406 1.230469c-.210938.382813-.382813.769531-.535157 1.160157-.046875.121093-.074219.238281-.113281.359374-.066406.203126-.144531.40625-.195312.609376-.015626.074218-.019532.148437-.035157.222656-.027343.132812-.050781.265625-.070312.398437-.027344.152344-.066407.308594-.082031.460938-.011719.121093-.003907.238281-.011719.359375-.007813.121094-.011719.242187-.015625.363281 0 .117187-.019532.238281-.011719.355469.003906.179687.03125.359375.046875.542968.007812.085938.011719.171876.023438.257813.496093 3.941406 3.796874 7.332031 8.277343 7.332031h12.300781v7.046875c0 2.210938 1.789063 4 4 4h2.296876v109.628907h-11.246094c-5.214844 0-9.441406 4.027343-9.867188 9.132812-.015625.109375-.023437.21875-.035156.328125-.007812.167969-.046875.324219-.046875.488281v.84375c0 5.496094 4.453125 9.953125 9.949219 9.953125h260.855468c5.496094 0 9.953126-4.457031 9.953126-9.953125v-.84375c0-.167968-.042969-.324218-.050782-.492187-.011718-.105469-.019531-.214844-.035156-.324219-.421875-5.105469-4.652344-9.132812-9.867188-9.132812h-11.246093v-109.628907h2.296875c.828125 0 1.597656-.253906 2.238281-.683593.425781-.289063.789063-.65625 1.078125-1.082032.433594-.636718.683594-1.40625.683594-2.234375v-7.046875h12.300781c4.476563 0 7.78125-3.390625 8.277344-7.332031.011719-.085937.015625-.175781.023437-.261719.019532-.183594.046875-.359375.050782-.542968zm0 0" fill="#382b73"/><path d="m369.226562 349.765625h-260.855468c-5.496094 0-9.949219-4.453125-9.949219-9.949219v-.84375c0-5.496094 4.457031-9.949218 9.949219-9.949218h260.859375c5.496093 0 9.949219 4.453124 9.949219 9.949218v.84375c0 5.492188-4.457032 9.949219-9.953126 9.949219zm0 0" fill="#ef5a9d"/><path d="m368.804688 341.425781h-260.011719c-4.242188 0-7.878907-2.554687-9.484375-6.203125-.5625 1.28125-.886719 2.683594-.886719 4.171875 0 5.726563 4.644531 10.371094 10.371094 10.371094h260.015625c5.726562 0 10.371094-4.644531 10.371094-10.371094 0-1.488281-.324219-2.890625-.886719-4.171875-1.605469 3.648438-5.242188 6.203125-9.488281 6.203125zm0 0" fill="#e43d91"/><path d="m119.617188 208.34375h238.363281v120.675781h-238.363281zm0 0" fill="#fff"/><path d="m269.953125 252.125h-62.308594c-2.210937 0-4 1.789062-4 4v72.894531h70.308594v-72.894531c0-2.207031-1.789063-4-4-4zm0 0" fill="#ef5a9d"/><g fill="#e43d91"><path d="m235.460938 252.125h6.675781v76.898438h-6.675781zm0 0"/><path d="m232.792969 294.847656c0 2.164063-1.757813 3.921875-3.921875 3.921875-2.167969 0-3.921875-1.757812-3.921875-3.921875 0-2.167968 1.753906-3.921875 3.921875-3.921875 2.164062 0 3.921875 1.753907 3.921875 3.921875zm0 0"/><path d="m252.648438 294.847656c0 2.164063-1.753907 3.921875-3.921876 3.921875-2.164062 0-3.921874-1.757812-3.921874-3.921875 0-2.167968 1.757812-3.921875 3.921874-3.921875 2.167969 0 3.921876 1.753907 3.921876 3.921875zm0 0"/></g><path d="m119.617188 208.34375h238.363281v20.328125h-238.363281zm0 0" fill="#e6e7e8"/><path d="m189.488281 259.53125c-.289062-.425781-.613281-.820312-.976562-1.183594-.722657-.722656-1.585938-1.308594-2.542969-1.714844-.957031-.402343-2.007812-.625-3.113281-.625h-41.441407c-4.417968 0-8 3.582032-8 8v32.367188c0 4.417969 3.582032 8 8 8h41.441407c4.417969 0 8-3.582031 8-8v-32.367188c0-.554687-.054688-1.09375-.160157-1.613281-.21875-1.042969-.632812-2.011719-1.207031-2.863281zm0 0" fill="#e6e7e8"/><path d="m344.027344 262.390625c-.214844-1.039063-.628906-2.007813-1.207032-2.859375-.285156-.425781-.613281-.820312-.972656-1.183594-.726562-.722656-1.585937-1.308594-2.542968-1.714844-.957032-.402343-2.011719-.625-3.113282-.625h-41.445312c-4.417969 0-8 3.582032-8 8v32.367188c0 4.417969 3.582031 8 8 8h41.441406c4.417969 0 8-3.582031 8-8v-32.367188c0-.554687-.054688-1.097656-.160156-1.617187zm0 0" fill="#e6e7e8"/><path d="m141.414062 300.375h41.441407c4.417969 0 8-3.582031 8-8v-32.371094c0-4.417968-3.582031-8-8-8h-41.441407c-4.417968 0-8 3.582032-8 8v32.371094c0 4.417969 3.582032 8 8 8zm0 0" fill="#fff335"/><path d="m158.355469 252.003906h7.554687v48.371094h-7.554687zm0 0" fill="#f7cb15"/><path d="m133.410156 272.410156h57.441406v7.558594h-57.441406zm0 0" fill="#f7cb15"/><path d="m182.855469 252.003906h-41.441407c-4.417968 0-8 3.582032-8 8v32.371094c0 4.417969 3.582032 8 8 8h41.441407c4.417969 0 8-3.582031 8-8v-32.371094c0-4.417968-3.582031-8-8-8zm1.871093 39.136719c0 1.695313-1.371093 3.0625-3.0625 3.0625h-39.0625c-1.695312 0-3.0625-1.367187-3.0625-3.0625v-29.90625c0-1.691406 1.367188-3.058594 3.0625-3.058594h39.0625c1.695313 0 3.0625 1.371094 3.0625 3.058594zm0 0" fill="#f7cb15"/><path d="m181.839844 254.542969h-39.414063c-3.3125 0-6 2.683593-6 6v31.296875c0 3.3125 2.6875 6 6 6h39.414063c3.3125 0 6-2.6875 6-6v-31.296875c0-3.316407-2.6875-6-6-6zm2.886718 36.597656c0 1.695313-1.371093 3.0625-3.0625 3.0625h-39.0625c-1.695312 0-3.0625-1.367187-3.0625-3.0625v-29.90625c0-1.691406 1.367188-3.058594 3.0625-3.058594h39.0625c1.695313 0 3.0625 1.367188 3.0625 3.058594zm0 0" fill="#e7ad27"/><path d="m294.746094 300.375h41.441406c4.417969 0 8-3.582031 8-8v-32.371094c0-4.417968-3.582031-8-8-8h-41.441406c-4.417969 0-8 3.582032-8 8v32.371094c0 4.417969 3.582031 8 8 8zm0 0" fill="#fff335"/><path d="m311.6875 252.003906h7.558594v48.371094h-7.558594zm0 0" fill="#f7cb15"/><path d="m286.746094 272.410156h57.441406v7.558594h-57.441406zm0 0" fill="#f7cb15"/><path d="m336.1875 252.003906h-41.441406c-4.417969 0-8 3.582032-8 8v32.371094c0 4.417969 3.582031 8 8 8h41.441406c4.417969 0 8-3.582031 8-8v-32.371094c0-4.417968-3.582031-8-8-8zm1.875 39.136719c0 1.695313-1.371094 3.0625-3.0625 3.0625h-39.066406c-1.691406 0-3.0625-1.367187-3.0625-3.0625v-29.90625c0-1.691406 1.371094-3.058594 3.0625-3.058594h39.066406c1.691406 0 3.0625 1.371094 3.0625 3.058594zm0 0" fill="#f7cb15"/><path d="m335.175781 254.542969h-39.414062c-3.316407 0-6 2.683593-6 6v31.296875c0 3.3125 2.683593 6 6 6h39.414062c3.3125 0 6-2.6875 6-6v-31.296875c0-3.316407-2.6875-6-6-6zm2.886719 36.597656c0 1.695313-1.371094 3.0625-3.0625 3.0625h-39.066406c-1.691406 0-3.0625-1.367187-3.0625-3.0625v-29.90625c0-1.691406 1.371094-3.058594 3.0625-3.058594h39.066406c1.691406 0 3.0625 1.367188 3.0625 3.058594zm0 0" fill="#e7ad27"/><path d="m341.796875 133.984375h-205.992187c-4.527344 0-8.699219 2.445313-10.910157 6.390625l-31.152343 55.550781c-3.117188 5.558594.902343 12.417969 7.277343 12.417969h275.5625c6.375 0 10.390625-6.859375 7.273438-12.417969l-31.148438-55.550781c-2.214843-3.945312-6.386719-6.390625-10.910156-6.390625zm0 0" fill="#ef5a9d"/><path d="m124.894531 151.425781c2.214844-3.945312 6.386719-6.390625 10.910157-6.390625h205.992187c4.523437 0 8.695313 2.445313 10.910156 6.390625l30.246094 53.941407c2.097656-2.507813 2.726563-6.191407.902344-9.4375l-31.148438-55.550782c-2.214843-3.945312-6.386719-6.390625-10.910156-6.390625h-205.992187c-4.527344 0-8.699219 2.445313-10.910157 6.390625l-31.152343 55.550782c-1.820313 3.246093-1.191407 6.929687.902343 9.4375zm0 0" fill="#f06ea9"/><path d="m383.164062 194.695312c-1.484374 1.925782-3.808593 3.226563-6.582031 3.226563h-275.5625c-2.773437 0-5.097656-1.300781-6.585937-3.226563l-.691406 1.230469c-3.117188 5.558594.902343 12.417969 7.277343 12.417969h275.5625c6.375 0 10.390625-6.859375 7.273438-12.417969zm0 0" fill="#e43d91"/><path d="m364.28125 208.34375h-250.964844v7.046875c0 2.210937 1.792969 4 4 4h242.964844c2.207031 0 4-1.789063 4-4zm0 0" fill="#ef5a9d"/><path d="m117.316406 219.394531h242.964844c2.207031 0 4-1.789062 4-4v-1.523437h-250.964844v1.523437c0 2.207031 1.792969 4 4 4zm0 0" fill="#e43d91"/><path d="m321.953125 95.390625h-30.59375c-2.210937 0-4 1.792969-4 4v34.59375h38.59375v-34.59375c0-2.207031-1.792969-4-4-4zm0 0" fill="#e43d91"/><path d="m321.953125 95.390625h-30.59375c-2.210937 0-4 1.792969-4 4v5c0-2.207031 1.789063-4 4-4h30.59375c2.207031 0 4 1.792969 4 4v-5c0-2.207031-1.792969-4-4-4zm0 0" fill="#ef5a9d"/><path d="m287.359375 121.550781h38.59375v12.433594h-38.59375zm0 0" fill="#a72973"/></svg>